
<svg xmlns="http://www.w3.org/2000/svg" xmlns:xlink="http://www.w3.org/1999/xlink" id="Layer_1" x="0px" y="0px" viewBox="0 0 635.8 174.04" style="enable-background:new 0 0 635.8 174.04;" xml:space="preserve"><style type="text/css">	.st0{fill:#FFFFFF;}	.st1{fill:url(#SVGID_1_);}	.st2{fill:url(#SVGID_00000132793005241933046400000007671936419450052515_);}	.st3{fill:url(#SVGID_00000172430718626941805390000009415427794260020411_);}	.st4{fill:url(#SVGID_00000170995822979339284260000003989114170603508618_);}	.st5{fill:url(#SVGID_00000022562245161012592310000017164849133193363118_);}	.st6{fill:url(#SVGID_00000133510798593854923600000006097697524485008007_);}	.st7{fill:url(#SVGID_00000156577148265204808250000013591517083044168336_);}	.st8{fill:#616363;}	.st9{fill:url(#SVGID_00000016769467459477795320000002392905081541719692_);}	.st10{fill:url(#SVGID_00000106866287356543764130000001726023809741148058_);}	.st11{fill:url(#SVGID_00000046301114774609269090000008728947563984876711_);}	.st12{fill:url(#SVGID_00000046308446493349034150000015089695110972518072_);}	.st13{fill:#90191C;}	.st14{fill:url(#SVGID_00000102526271682204407790000008533397047080215738_);}	.st15{filter:url(#Adobe_OpacityMaskFilter);}	.st16{filter:url(#Adobe_OpacityMaskFilter_00000114031467185414767820000001034806215723482497_);}			.st17{mask:url(#SVGID_00000003105537650788398850000008729331546732533888_);fill:url(#SVGID_00000097466837034579110690000017182407513638493371_);}	.st18{opacity:0.35;fill:url(#SVGID_00000084510999684999013280000006344285018011427242_);}	.st19{fill:url(#SVGID_00000165202044558709892810000002098139858438681006_);}	.st20{fill:url(#SVGID_00000105392389205397940370000013628925761807658401_);}	.st21{fill:url(#SVGID_00000121260916634127222930000017955161175992018590_);}	.st22{fill:url(#SVGID_00000152230542711335263780000008487381009959214735_);}	.st23{fill:url(#SVGID_00000172418552815412241760000003589654638944893357_);}	.st24{fill:url(#SVGID_00000006694923499811069320000000413712770834292375_);}	.st25{fill:url(#SVGID_00000000941257940613675030000017473980466468779938_);}</style><g>	<g>		<linearGradient id="SVGID_1_" gradientUnits="userSpaceOnUse" x1="660.4019" y1="-10.3147" x2="-25.0216" y2="88.0424">			<stop offset="0" style="stop-color:#2F3181"></stop>			<stop offset="0.6609" style="stop-color:#0E7059"></stop>			<stop offset="1" style="stop-color:#008B47"></stop>		</linearGradient>		<path class="st1" d="M135.22,88.29c0.07,8.99,0.11,16.5,0.11,22.52l0.11,7.72c0,0.94-0.47,1.41-1.41,1.41h-15.66   c-0.94,0-1.41-0.47-1.41-1.41l0.11-7.72c0-6.02,0.03-13.53,0.11-22.52c0-2.39,0.04-6.02,0.11-10.88v-2.94v-3.04   c0-2.25,0-4.32,0-6.2v-3.15l-0.11-2.28c-0.15-1.59-0.44-3.12-0.87-4.57c-1.02-3.05-2.65-5.76-4.89-8.16   c-2.18-2.32-4.82-4.06-7.94-5.22c-1.38-0.58-2.87-0.98-4.46-1.2l-0.65-0.11c-0.22-0.07-0.36-0.11-0.44-0.11h-0.33h-0.22   c-0.14,0-0.36,0-0.65,0l-0.76-0.11h-0.22h-0.22h-0.65l-0.54,0.11c-5.8,0.22-10.7,2.5-14.68,6.85c-1.6,1.59-2.87,3.41-3.81,5.44   c-0.8,1.6-1.38,3.23-1.74,4.9c-0.22,0.8-0.36,1.41-0.44,1.85v0.44v0.33l-0.11,0.54c0,0.65-0.04,1.16-0.11,1.52v1.3v54.93   c0,0.94-0.47,1.41-1.41,1.41H56.14c-0.94,0-1.41-0.47-1.41-1.41V23.08c0-0.94,0.47-1.41,1.41-1.41h15.88   c0.94,0,1.41,0.47,1.41,1.41v7.56c1.67-1.23,3.3-2.24,4.89-3.04c4.64-2.39,9.61-3.81,14.9-4.24l0.98-0.11h0.98h0.54h0.43h0.22   h0.76c0.22,0,0.54,0,0.98,0l0.54,0.11h0.54c0.36,0,0.72,0.04,1.09,0.11l1.09,0.11c2.83,0.44,5.55,1.12,8.16,2.07   c5.58,2.03,10.37,5.15,14.36,9.35c4.13,4.21,7.14,9.06,9.03,14.58c0.94,2.68,1.56,5.44,1.85,8.27c0.22,1.38,0.33,2.79,0.33,4.24   v3.15c0,1.89,0,3.95,0,6.2v3.04l0.11,2.94C135.22,82.27,135.22,85.9,135.22,88.29z"></path>					<linearGradient id="SVGID_00000078005190495580875230000009574701695824557708_" gradientUnits="userSpaceOnUse" x1="662.086" y1="1.4174" x2="-23.3386" y2="99.7747">			<stop offset="0" style="stop-color:#2F3181"></stop>			<stop offset="0.6609" style="stop-color:#0E7059"></stop>			<stop offset="1" style="stop-color:#008B47"></stop>		</linearGradient>		<path style="fill:url(#SVGID_00000078005190495580875230000009574701695824557708_);" d="M219.66,22.54   c0.22-0.58,0.65-0.87,1.31-0.87h16.86c0.51,0,0.91,0.18,1.2,0.55c0.29,0.43,0.33,0.87,0.11,1.3L203.75,119   c-0.22,0.65-0.69,0.98-1.41,0.98h-12.4c-0.65,0-1.09-0.33-1.31-0.98l-35.45-95.47c-0.15-0.43-0.07-0.87,0.22-1.3   c0.22-0.36,0.58-0.55,1.09-0.55h16.86c0.72,0,1.2,0.29,1.41,0.87l23.38,63.17L219.66,22.54z"></path>					<linearGradient id="SVGID_00000133519807952780970470000008374098645761620352_" gradientUnits="userSpaceOnUse" x1="664.5237" y1="18.4034" x2="-20.9012" y2="116.7607">			<stop offset="0" style="stop-color:#2F3181"></stop>			<stop offset="0.6609" style="stop-color:#0E7059"></stop>			<stop offset="1" style="stop-color:#008B47"></stop>		</linearGradient>		<path style="fill:url(#SVGID_00000133519807952780970470000008374098645761620352_);" d="M298.78,21.67   c13.06,0.07,24.19,4.89,33.39,14.45c9.2,9.49,13.79,20.8,13.79,33.94v6.24c0,0.88-0.44,1.35-1.32,1.43l-72.25,6.24   c2.48,5.25,6.2,9.49,11.17,12.7c5.04,3.21,10.55,4.82,16.53,4.82c5.26,0,10.18-1.24,14.78-3.72c4.67-2.55,8.39-6.02,11.17-10.4   c0.51-0.8,1.17-0.99,1.97-0.55l13.46,7.88c0.87,0.44,1.06,1.09,0.55,1.97c-4.45,7.22-10.44,12.92-17.95,17.08   c-7.44,4.16-15.44,6.24-23.97,6.24c-13.5,0-25.07-4.82-34.7-14.45c-9.63-9.56-14.45-21.13-14.45-34.7   c0-13.87,4.63-25.54,13.9-35.03C274.11,26.31,285.42,21.6,298.78,21.67z M326.47,60.75c-1.61-6.27-4.93-11.28-9.96-15   c-5.04-3.79-11.06-5.69-18.06-5.69c-7.37,0-13.72,2.41-19.05,7.22c-5.33,4.75-8.54,10.88-9.63,18.39L326.47,60.75z"></path>					<linearGradient id="SVGID_00000106859190354210100330000008512237411872661903_" gradientUnits="userSpaceOnUse" x1="657.2234" y1="-32.4629" x2="-28.2003" y2="65.8943">			<stop offset="0" style="stop-color:#2F3181"></stop>			<stop offset="0.6609" style="stop-color:#0E7059"></stop>			<stop offset="1" style="stop-color:#008B47"></stop>		</linearGradient>		<path style="fill:url(#SVGID_00000106859190354210100330000008512237411872661903_);" d="M0.06,1.11L0,119.55   c0,0.24,0.19,0.43,0.43,0.43h20.23c0.24,0,0.43-0.19,0.43-0.43l0.21-97.88c0-0.11-0.04-0.22-0.13-0.31L0.8,0.81   C0.53,0.54,0.06,0.73,0.06,1.11z"></path>					<linearGradient id="SVGID_00000086667264065071758250000004949893898127312781_" gradientUnits="userSpaceOnUse" x1="666.7126" y1="33.6606" x2="-18.7109" y2="132.0177">			<stop offset="0" style="stop-color:#2F3181"></stop>			<stop offset="0.6609" style="stop-color:#0E7059"></stop>			<stop offset="1" style="stop-color:#008B47"></stop>		</linearGradient>		<path style="fill:url(#SVGID_00000086667264065071758250000004949893898127312781_);" d="M448.71,88.11   c0.07,8.99,0.11,16.5,0.11,22.52l0.11,7.72c0,0.94-0.47,1.41-1.41,1.41h-15.66c-0.94,0-1.41-0.47-1.41-1.41l0.11-7.72   c0-6.02,0.03-13.53,0.11-22.52c0-2.39,0.04-6.02,0.11-10.88v-2.94v-3.04c0-2.25,0-4.32,0-6.2v-3.15l-0.11-2.28   c-0.15-1.59-0.44-3.12-0.87-4.57c-1.02-3.05-2.65-5.76-4.89-8.16c-2.18-2.32-4.82-4.06-7.94-5.22c-1.38-0.58-2.87-0.98-4.46-1.2   l-0.65-0.11c-0.22-0.07-0.36-0.11-0.44-0.11h-0.33h-0.22c-0.14,0-0.36,0-0.65,0l-0.76-0.11h-0.22H409h-0.65l-0.54,0.11   c-5.8,0.22-10.7,2.5-14.68,6.85c-1.6,1.59-2.87,3.41-3.81,5.44c-0.8,1.6-1.38,3.23-1.74,4.9c-0.22,0.8-0.36,1.41-0.44,1.85v0.44   v0.33l-0.11,0.54c0,0.65-0.04,1.16-0.11,1.53v1.3v55.15c0,0.94-0.47,1.41-1.41,1.41h-15.88c-0.94,0-1.41-0.47-1.41-1.41v-95.5   c0-0.94,0.47-1.41,1.41-1.41h15.88c0.94,0,1.41,0.47,1.41,1.41v7.4c1.67-1.23,3.3-2.24,4.89-3.04c4.64-2.39,9.61-3.81,14.9-4.24   l0.98-0.11h0.98h0.54h0.43h0.22h0.76c0.22,0,0.54,0,0.98,0l0.54,0.11h0.54c0.36,0,0.72,0.04,1.09,0.11l1.09,0.11   c2.83,0.44,5.55,1.12,8.16,2.07c5.58,2.03,10.37,5.15,14.36,9.35c4.13,4.21,7.14,9.06,9.03,14.58c0.94,2.68,1.56,5.44,1.85,8.27   c0.22,1.38,0.33,2.79,0.33,4.24v3.15c0,1.89,0,3.95,0,6.2v3.04l0.11,2.94C448.71,82.09,448.71,85.71,448.71,88.11z"></path>					<linearGradient id="SVGID_00000040576070356839760970000002347570109294157238_" gradientUnits="userSpaceOnUse" x1="667.0223" y1="35.8165" x2="-18.4006" y2="134.1735">			<stop offset="0" style="stop-color:#2F3181"></stop>			<stop offset="0.6609" style="stop-color:#0E7059"></stop>			<stop offset="1" style="stop-color:#008B47"></stop>		</linearGradient>		<path style="fill:url(#SVGID_00000040576070356839760970000002347570109294157238_);" d="M506.9,101.05   c2.32,1.16,5.04,0.76,8.16-1.2c0.72-0.44,1.34-0.29,1.85,0.43l9.25,12.4c0.65,0.8,0.54,1.45-0.33,1.96   c-5.15,3.56-10.55,5.33-16.21,5.33c-3.84,0-7.5-0.87-10.98-2.61c-4.43-2.18-7.91-5.51-10.44-10.01c-2.46-4.5-3.7-9.57-3.7-15.23   V40.25h-14.9c-0.94,0-1.41-0.47-1.41-1.41V23.08c0-0.94,0.47-1.41,1.41-1.41h14.9l-0.11-20.26c0-0.94,0.47-1.41,1.41-1.41h15.55   c0.94,0,1.41,0.47,1.41,1.41v20.26h14.9c0.94,0,1.41,0.47,1.41,1.41v15.75c0,0.94-0.47,1.41-1.41,1.41h-14.9v51.88   C502.77,96.7,504.15,99.68,506.9,101.05z"></path>					<linearGradient id="SVGID_00000060751238405755027280000000697299657989839241_" gradientUnits="userSpaceOnUse" x1="670.3199" y1="58.7978" x2="-15.106" y2="157.1552">			<stop offset="0" style="stop-color:#2F3181"></stop>			<stop offset="0.6609" style="stop-color:#0E7059"></stop>			<stop offset="1" style="stop-color:#008B47"></stop>		</linearGradient>		<path style="fill:url(#SVGID_00000060751238405755027280000000697299657989839241_);" d="M586.61,21.67   c13.63,0,25.21,4.77,34.76,14.32c9.62,9.62,14.43,21.21,14.43,34.76c0,13.63-4.81,25.25-14.43,34.87   c-9.55,9.55-21.14,14.32-34.76,14.32c-13.56,0-25.14-4.77-34.76-14.32c-9.62-9.62-14.43-21.24-14.43-34.87   c0-13.55,4.81-25.14,14.43-34.76C561.46,26.44,573.05,21.67,586.61,21.67z M586.61,101.58c8.53,0,15.78-3.02,21.75-9.07   c6.05-5.98,9.07-13.23,9.07-21.75c0-8.45-3.02-15.67-9.07-21.64c-5.98-6.05-13.23-9.07-21.75-9.07c-8.46,0-15.67,3.02-21.65,9.07   c-6.05,5.98-9.07,13.19-9.07,21.64c0,8.53,3.03,15.78,9.07,21.75C570.94,98.56,578.15,101.58,586.61,101.58z"></path>	</g>	<path class="st8" d="M54.88,174.04c-1.48,0-2.81-0.2-3.97-0.58c-1.16-0.38-2.2-0.91-3.09-1.57c-0.91-0.68-1.65-1.45-2.29-2.35  c-0.64-0.91-1.16-1.91-1.56-2.95c-0.4-1.06-0.7-2.17-0.89-3.31c-0.19-1.14-0.28-2.3-0.28-3.45c0-1.14,0.09-2.29,0.28-3.44  c0.18-1.14,0.48-2.26,0.89-3.31c0.4-1.05,0.92-2.04,1.56-2.95c0.64-0.91,1.41-1.69,2.29-2.35c0.89-0.66,1.93-1.19,3.09-1.58  c1.16-0.38,2.5-0.58,3.97-0.58c1.47,0,2.81,0.2,3.96,0.58c1.15,0.39,2.18,0.92,3.07,1.58c0.88,0.66,1.64,1.45,2.28,2.35  c0.63,0.9,1.16,1.89,1.56,2.95c0.4,1.04,0.7,2.16,0.89,3.31c0.19,1.15,0.28,2.31,0.28,3.44c0,1.14-0.09,2.3-0.28,3.45  c-0.19,1.15-0.49,2.26-0.89,3.31c-0.4,1.05-0.93,2.05-1.56,2.95c-0.62,0.89-1.39,1.68-2.28,2.35c-0.89,0.67-1.92,1.19-3.07,1.57  C57.69,173.85,56.35,174.04,54.88,174.04z M54.88,150.05c-0.91,0-1.73,0.15-2.44,0.45c-0.7,0.29-1.33,0.69-1.87,1.19  c-0.53,0.49-0.99,1.07-1.37,1.72c-0.37,0.64-0.67,1.33-0.9,2.05c-0.23,0.71-0.39,1.45-0.5,2.19c-0.1,0.75-0.15,1.47-0.15,2.17  c0,1.09,0.12,2.22,0.37,3.37c0.24,1.15,0.65,2.2,1.2,3.14c0.56,0.95,1.31,1.74,2.23,2.34c0.93,0.61,2.09,0.92,3.44,0.92  c1.34,0,2.49-0.32,3.42-0.95c0.91-0.62,1.65-1.43,2.21-2.4c0.55-0.95,0.95-2.01,1.2-3.14c0.24-1.12,0.36-2.22,0.36-3.27  c0-0.74-0.05-1.49-0.15-2.25c-0.1-0.77-0.27-1.51-0.5-2.22c-0.23-0.72-0.54-1.4-0.91-2.03c-0.37-0.64-0.83-1.21-1.36-1.7  c-0.54-0.48-1.16-0.87-1.87-1.15C56.58,150.19,55.77,150.05,54.88,150.05z M10.98,174.04c-1.28,0-2.49-0.18-3.6-0.52  c-1.11-0.35-2.14-0.86-3.03-1.49c-0.9-0.64-1.69-1.44-2.36-2.35c-0.6-0.83-1.09-1.75-1.47-2.75l4.24-1.58  c0.28,0.55,0.61,1.07,0.98,1.54c0.44,0.57,0.94,1.06,1.51,1.48c0.55,0.41,1.16,0.73,1.81,0.96c0.66,0.23,1.37,0.35,2.1,0.35  c0.7,0,1.37-0.08,1.96-0.23c0.61-0.16,1.14-0.39,1.58-0.71c0.45-0.32,0.8-0.73,1.05-1.22c0.25-0.49,0.37-1.05,0.37-1.67  c0-0.79-0.25-1.46-0.74-2c-0.46-0.51-1.05-0.95-1.77-1.31c-0.7-0.36-1.5-0.69-2.4-0.97c-0.87-0.28-1.76-0.58-2.67-0.9  c-0.9-0.31-1.78-0.67-2.64-1.08c-0.83-0.4-1.59-0.9-2.24-1.49c-0.64-0.57-1.16-1.28-1.56-2.11c-0.39-0.81-0.59-1.81-0.59-2.97  c0-1,0.2-1.95,0.6-2.84c0.4-0.89,0.99-1.67,1.76-2.33c0.76-0.67,1.72-1.21,2.86-1.61c1.14-0.39,2.46-0.6,3.93-0.6  c1.23,0,2.35,0.16,3.34,0.47c0.97,0.31,1.85,0.75,2.61,1.31c0.75,0.56,1.39,1.22,1.9,1.97c0.44,0.65,0.79,1.36,1.05,2.13  l-4.16,1.38c-0.16-0.32-0.36-0.63-0.59-0.93c-0.31-0.4-0.69-0.75-1.13-1.04c-0.44-0.3-0.94-0.53-1.49-0.69  c-0.55-0.16-1.17-0.24-1.84-0.24c-1.27,0-2.28,0.26-3.01,0.79c-0.77,0.55-1.17,1.33-1.17,2.32c0,0.68,0.26,1.26,0.77,1.73  c0.45,0.41,1.04,0.78,1.76,1.1c0.7,0.32,1.49,0.61,2.38,0.89c0.87,0.28,1.76,0.58,2.68,0.91c0.9,0.33,1.78,0.72,2.64,1.16  c0.84,0.43,1.59,0.98,2.24,1.61c0.64,0.63,1.17,1.38,1.57,2.24c0.39,0.86,0.59,1.91,0.59,3.11c0,1.31-0.25,2.48-0.75,3.48  c-0.49,1-1.18,1.86-2.05,2.56c-0.87,0.7-1.91,1.24-3.11,1.61S12.39,174.04,10.98,174.04z M612.98,173.55v-27.46h9.13  c1.6,0,3.05,0.19,4.32,0.55c1.27,0.36,2.41,0.87,3.39,1.5c0.97,0.62,1.82,1.38,2.51,2.25c0.7,0.87,1.28,1.81,1.73,2.83  c0.45,1.02,0.79,2.1,0.99,3.21c0.21,1.13,0.32,2.28,0.32,3.4c0,1.05-0.1,2.14-0.3,3.23c-0.2,1.08-0.52,2.15-0.95,3.17  c-0.43,1.01-1,1.97-1.69,2.86c-0.69,0.88-1.54,1.66-2.53,2.33c-1.01,0.67-2.17,1.2-3.46,1.57c-1.32,0.38-2.84,0.58-4.52,0.58  H612.98z M617.62,169.2h4.96c1.48,0,2.74-0.29,3.75-0.87c1-0.57,1.83-1.32,2.46-2.23c0.62-0.9,1.07-1.91,1.34-3.02  c0.27-1.09,0.41-2.19,0.41-3.25c0-1.14-0.14-2.27-0.43-3.37c-0.29-1.11-0.73-2.12-1.33-2.99c-0.6-0.88-1.39-1.61-2.34-2.17  c-0.96-0.55-2.11-0.83-3.41-0.83h-5.42V169.2z M570.82,173.55v-27.46h18.49v4.37h-13.84v6.75h8.14v4.35h-8.14v7.64h14.69v4.35  H570.82z M535.7,173.55v-23.01h-8.08v-4.45h20.79v4.45h-8.08v23.01H535.7z M500.36,173.55v-27.46h4.62v27.46H500.36z   M471.28,173.55l0.01-14.67l0.03-1.14l-0.76-0.67c-0.14,0.44-0.28,0.83-0.41,1.18s-0.27,0.69-0.42,1l-6.49,14.21l-6.53-14.21  c-0.14-0.31-0.28-0.65-0.41-1c-0.14-0.35-0.27-0.74-0.41-1.18l-0.8,0.17l0.08,2.18v14.13h-4.65v-27.46h4.87l6.83,15.36l0.39,0.95  c0.11,0.3,0.22,0.61,0.33,0.93l0.39,1.22l0.38-1.22c0.1-0.32,0.21-0.63,0.33-0.94l0.39-0.96l6.95-15.35h4.53v27.46H471.28z   M421.45,173.55v-27.46h4.62v27.46H421.45z M381.73,173.55v-27.46h4.65v23.03h13.64v4.43H381.73z M314.13,173.55v-27.46h18.49v4.37  h-13.84v6.75h8.14v4.35h-8.14v7.64h14.69v4.35H314.13z M285.44,173.55L280.16,163h-6.36v10.55h-4.65v-27.46h12.72  c1.73,0,3.18,0.24,4.33,0.71c1.13,0.46,2.06,1.08,2.76,1.85c0.69,0.77,1.19,1.66,1.49,2.66c0.3,1.02,0.45,2.1,0.45,3.22  c0,0.76-0.11,1.54-0.33,2.33c-0.22,0.78-0.55,1.53-0.99,2.23c-0.44,0.69-0.99,1.34-1.64,1.91c-0.65,0.56-1.41,1-2.25,1.31  l-0.43,0.15l5.39,11.08H285.44z M273.8,158.65h8.16c0.75,0,1.4-0.11,1.92-0.33c0.53-0.23,0.96-0.54,1.29-0.93  c0.33-0.39,0.57-0.84,0.7-1.34c0.14-0.47,0.2-0.98,0.2-1.51c0-0.48-0.06-0.96-0.18-1.43c-0.13-0.49-0.35-0.94-0.66-1.34  c-0.31-0.39-0.74-0.72-1.29-0.96c-0.54-0.23-1.21-0.35-1.99-0.35h-8.16V158.65z M241.9,173.55l-2.19-5.86h-11.47l-2.17,5.86h-4.98  l10.51-27.46h4.76l10.51,27.46H241.9z M233.59,153.13c-0.1,0.39-0.24,0.82-0.4,1.28c-0.17,0.46-3.48,9.12-3.48,9.12h8.54  l-2.99-7.91c-0.15-0.35-0.3-0.75-0.46-1.21c-0.16-0.47-0.3-0.9-0.42-1.3l-0.41-1.42L233.59,153.13z M190.15,173.55l-4.2-16.34  c-0.11-0.43-0.2-0.81-0.25-1.15l-0.12-0.84l-0.82-0.1c-0.04,0.27-0.09,0.58-0.16,0.92c-0.07,0.34-0.15,0.72-0.25,1.13l-4.08,16.38  h-4.44l-5.88-27.46h4.78l3.09,15.59c0.1,0.48,0.18,0.87,0.22,1.18l0.13,0.9h0.81l0.14-0.91c0.05-0.31,0.14-0.71,0.25-1.2  l3.81-15.56h4.09l3.87,15.57c0.13,0.49,0.22,0.89,0.27,1.2l0.14,0.91l0.81,0l0.11-0.79c0.06-0.41,0.13-0.81,0.24-1.28l3.09-15.59  h4.74l-5.93,27.46H190.15z M136.55,173.55v-23.01h-8.09v-4.45h20.79v4.45h-8.08v23.01H136.55z M90.13,173.55v-27.46h18.13v4.37  H94.77v6.75h8.56v4.35h-8.56v11.99H90.13z"></path></g></svg>
